<svg width="132" height="133" viewBox="0 0 132 133" fill="none" xmlns="http://www.w3.org/2000/svg">
<ellipse cx="66" cy="66.5" rx="66" ry="66.5" fill="#21FF95"/>
<path d="M79.6794 65.8731C75.8439 69.3484 71.5816 71.6033 66.8926 72.6377L63.965 66.7939C66.0286 66.2941 68.0728 65.5484 70.0976 64.5569C72.1368 63.5522 73.9163 62.3614 75.436 60.9844C77.3031 59.2927 78.3425 57.6264 78.5541 55.9857C78.7522 54.3309 78.1482 52.7705 76.742 51.3047C74.8761 49.3596 72.2533 49.2201 68.8736 50.8861C68.6313 51.0002 67.9611 51.3309 66.8628 51.8781C65.751 52.4113 64.7034 52.9126 63.72 53.3822C62.7375 53.8245 62.0189 54.133 61.5644 54.3078C55.8885 56.7107 51.1306 55.9107 47.2906 51.9078C44.6 49.103 43.5449 46.0149 44.1255 42.6436C44.7205 39.2592 46.7114 36.0326 50.0983 32.9639C53.9338 29.4886 57.9779 27.2602 62.2306 26.2785L64.466 32.0777C60.4394 33.4077 57.2102 35.1744 54.7787 37.3776C53.0274 38.9644 51.9937 40.4674 51.6777 41.8865C51.3627 43.2784 51.8455 44.6983 53.1262 46.1461C54.7757 47.8657 56.7263 48.1928 58.9779 47.1275C59.4469 46.9396 60.5646 46.4407 62.3307 45.6308C64.0968 44.8209 65.2434 44.2958 65.7703 44.0554C69.5719 42.3497 72.7576 41.6236 75.3274 41.877C77.9116 42.1174 80.3868 43.4708 82.753 45.9374C85.5788 48.8831 86.6846 52.1228 86.0704 55.6564C85.4426 59.1759 83.3123 62.5815 79.6794 65.8731Z" fill="#2178FF"/>
<path d="M51.1367 99L41.3809 66.8027H49.2031L55.3848 90.416C55.5215 89.9668 56.6348 86.1289 58.7246 78.9023C60.8145 71.6758 61.9961 67.6426 62.2695 66.8027H70.1504C70.4043 67.623 71.5273 71.6172 73.5195 78.7852C75.5117 85.9531 76.5859 89.8008 76.7422 90.3281L83.0996 66.8027H90.8047L80.7266 99H73.0801C72.8262 98.1602 71.6348 93.9121 69.5059 86.2559C67.3965 78.5996 66.2539 74.4688 66.0781 73.8633C65.6875 75.2891 64.4375 79.5859 62.3281 86.7539C60.2383 93.9219 59.0273 98.0039 58.6953 99H51.1367Z" fill="#2178FF"/>
</svg>
